<svg width="157" height="344" viewBox="0 0 157 344" fill="none" xmlns="http://www.w3.org/2000/svg">
<path d="M147.127 0V184.9H146.886C146.886 183.9 146.868 182.909 146.833 181.922C146.61 173.664 145.157 166.58 143.614 159.086C143.112 156.633 142.598 154.108 142.109 151.486C140.841 143.674 138.82 136.003 136.073 128.579L136.055 128.535L136.019 128.446C134.473 124.968 132.729 121.582 130.794 118.304C129.108 115.575 128.877 112.828 128.627 109.922V109.913C128.413 107.09 127.923 104.294 127.164 101.566C126.386 98.8707 125.294 96.2754 123.91 93.833C122.53 91.5315 121.592 88.9934 121.146 86.349C120.512 82.5499 119.31 78.8672 117.579 75.424C114.494 69.646 109.545 67.424 104.32 65.068C103.016 64.481 101.672 63.877 100.344 63.21C99.3541 62.71 98.2938 62.25 97.1703 61.752C94.8654 60.836 92.658 59.6926 90.5811 58.339C88.5929 57.0822 87.1536 55.1237 86.5507 52.855C85.9541 49.9894 85.8547 47.0431 86.2568 44.144C86.2839 43.957 86.301 43.788 86.31 43.644C86.3722 42.835 86.3903 42.586 88.0845 41.884C89.9743 40.462 90.5009 37.831 90.9643 35.511C90.9914 35.342 91.0265 35.173 91.0646 34.995C91.6664 32.07 90.9643 31.075 90.2892 30.106C90.1277 29.8915 90.0207 29.6412 89.9772 29.3766C89.9337 29.1119 89.955 28.8407 90.0394 28.586L90.0485 28.533C90.5464 25.0856 90.3892 21.5755 89.585 18.186C88.8688 15.1251 87.4288 12.2793 85.3852 9.886C83.7384 8.11914 81.7438 6.70983 79.526 5.74612C77.3082 4.78242 74.9149 4.28502 72.4956 4.28502C70.0763 4.28502 67.683 4.78242 65.4652 5.74612C63.2474 6.70983 61.2528 8.11914 59.606 9.886C57.5652 12.2799 56.1282 15.1258 55.4151 18.186C54.6039 21.5743 54.4435 25.0852 54.9427 28.533V28.586C55.0311 28.841 55.0554 29.1138 55.0134 29.3804C54.9715 29.647 54.8645 29.8992 54.702 30.115C53.3909 31.982 53.5695 33.271 53.9998 35.386C54.5344 38.008 55.034 40.479 56.9087 41.893C58.3532 42.764 58.5137 43.351 58.6471 43.866C58.6742 43.966 58.7002 44.053 58.7273 44.142C59.1801 47.0669 59.1462 50.0461 58.627 52.96C58.0252 55.66 54.9888 58.631 49.5862 61.787C45.741 63.9668 41.7418 65.8652 37.6205 67.467L37.5844 67.485C35.861 68.2118 34.2864 69.2484 32.9391 70.543C31.6322 71.8086 30.5172 73.2571 29.629 74.843C27.8442 78.1858 26.5899 81.7842 25.9106 85.51C25.4313 88.2198 24.5635 90.8467 23.3336 93.31C22.1365 95.5139 21.2286 97.8622 20.6324 100.297C19.8679 102.705 19.3539 105.184 19.0986 107.697C18.6081 111.315 18.0956 115.048 16.0894 118.31C14.1541 121.588 12.4095 124.974 10.8644 128.452L10.8202 128.541L10.8022 128.594C7.74377 136.967 6.21909 144.576 4.61416 152.63C3.89194 156.257 3.14264 160.008 2.24288 163.874C0.920551 169.803 0.181464 175.847 0.0361063 181.919C0.0180509 182.755 0 183.608 0 184.435V0H147.127Z" fill="#53BFEF"/>
<path d="M63.3144 187.512C59.9431 185.988 56.3698 184.955 52.7038 184.445C49.1265 183.918 45.5138 183.665 41.8976 183.689C41.042 183.689 40.6578 183.6 40.4713 183.378C40.2486 183.111 40.3378 182.622 40.4983 181.849C40.6498 181.12 40.7832 180.365 40.9086 179.627C40.9889 179.209 41.0601 178.791 41.1403 178.374L41.1493 178.321C41.9879 173.859 42.8435 169.245 43.316 164.703C43.3782 164.054 43.4324 163.45 43.4855 162.854C43.5788 161.111 43.8296 159.379 44.2348 157.681C44.3151 157.405 44.3682 157.157 44.4224 156.943C44.6541 155.992 44.7344 155.681 45.1175 155.681C45.4346 155.711 45.7462 155.782 46.0444 155.894C46.2049 155.947 46.3831 156.001 46.579 156.054C50.4443 157.146 54.3925 157.922 58.3843 158.374C62.7372 158.888 67.1172 159.141 71.5005 159.13C76.5383 159.135 81.5713 158.82 86.5688 158.186C91.1557 157.628 95.6906 156.707 100.13 155.43C100.46 155.33 100.732 155.243 100.933 155.172C101.141 155.083 101.36 155.023 101.584 154.994C101.834 154.994 101.905 155.216 102.085 155.821C102.148 156.021 102.219 156.274 102.326 156.585C102.496 157.101 102.674 157.652 102.808 158.212C103.139 159.627 103.333 161.071 103.387 162.523C103.862 167.768 104.632 172.982 105.695 178.141L105.739 178.363C105.819 178.781 105.899 179.207 105.979 179.607C106.158 180.523 106.345 181.465 106.488 182.398C106.515 182.576 106.541 182.736 106.568 182.869C106.63 183.207 106.669 183.402 106.577 183.518C106.444 183.678 106.069 183.678 105.173 183.678C96.1452 183.687 89.1417 184.922 83.7471 187.456C83.382 187.634 83.0961 187.776 82.8825 187.892C82.7229 187.993 82.5481 188.068 82.3649 188.114C82.3566 188.115 82.3482 188.114 82.3405 188.111C82.3328 188.108 82.326 188.102 82.3208 188.096C82.2937 188.052 82.3388 187.909 82.41 187.66C82.4812 187.411 82.6107 187.047 82.722 186.549C83.096 184.881 83.2221 183.168 83.0961 181.464C83.0911 181.214 82.9869 180.977 82.8064 180.803C82.6258 180.63 82.3837 180.535 82.1332 180.54C81.9904 180.536 81.8486 180.564 81.7177 180.621C81.5868 180.678 81.4701 180.763 81.3757 180.869C81.2812 180.976 81.2115 181.102 81.1713 181.239C81.1311 181.376 81.1215 181.519 81.1431 181.66C81.2678 183.433 81.0807 185.213 80.5904 186.922C79.8927 189.404 78.3147 191.549 76.1498 192.958C75.396 193.619 74.4557 194.032 73.4575 194.14C72.4092 194.006 71.4282 193.552 70.6489 192.84C68.4235 191.376 66.8566 189.106 66.2795 186.511C65.8586 184.933 65.7107 183.295 65.8422 181.667C65.8602 181.524 65.8472 181.378 65.8041 181.24C65.761 181.102 65.6889 180.975 65.5924 180.867C65.4958 180.766 65.3796 180.685 65.2508 180.63C65.122 180.575 64.9832 180.547 64.8431 180.547C64.5934 180.545 64.3529 180.641 64.173 180.814C63.9931 180.986 63.888 181.222 63.8801 181.471C63.7558 183.2 63.8879 184.937 64.2723 186.627C64.3526 186.985 64.4531 187.338 64.5733 187.685C64.6445 187.916 64.6896 188.067 64.6625 188.112C64.6505 188.123 64.6348 188.129 64.6184 188.13C64.4394 188.08 64.2682 188.005 64.1098 187.908C63.9179 187.804 63.6528 187.672 63.3144 187.512Z" fill="white" fill-opacity="0.11" stroke="#088ECF"/>
<path d="M81.6818 214.987C79.3574 209.337 77.5084 203.503 76.1538 197.547C76.0535 197.04 75.9532 196.667 75.886 196.4C75.6854 195.627 75.6854 195.627 76.2341 195.324C76.4217 195.224 76.6795 195.084 77.0095 194.871C77.8322 194.291 78.604 193.643 79.3165 192.933C79.9705 192.283 80.6749 191.686 81.423 191.146C84.9034 188.914 88.8112 187.428 92.8983 186.782C97.0008 186.06 101.162 185.718 105.327 185.76H106.023C107.084 185.76 107.093 185.822 107.19 186.569C107.208 186.702 107.226 186.862 107.261 187.04C108.206 193.5 108.778 200.008 108.974 206.533C109.216 211.402 109.088 216.283 108.59 221.133C107.67 228.276 107.327 235.482 107.565 242.68C107.83 247.05 108.441 251.393 109.393 255.667C110.759 262.203 111.567 268.844 111.809 275.516C111.942 282.181 111.57 288.845 110.695 295.454V295.481C109.723 303.597 108.813 311.259 110.151 319.552C110.749 322.835 112.267 325.883 114.529 328.343C116.56 330.582 118.829 332.594 121.296 334.343C122.028 334.885 122.857 335.667 122.652 336.299C122.5 336.761 121.813 337.019 120.779 337.019C120.578 337.019 120.387 337.01 120.177 336.992C119.675 336.948 119.258 336.93 118.866 336.93C117.788 336.96 116.714 337.079 115.656 337.286C114.795 337.447 113.923 337.542 113.048 337.57C111.685 337.588 110.362 337.107 109.33 336.219C108.024 335.266 106.462 334.724 104.845 334.663C103.34 334.476 102.045 334.307 102.237 331.107C102.424 327.977 102.442 324.839 102.29 321.707C101.809 311.742 100.747 303.751 99.0441 297.298C96.6809 288.329 95.4601 282.311 94.9696 277.165C94.6323 273.357 94.6025 269.529 94.8804 265.716L94.8984 265.416C94.9877 263.949 94.9877 263.949 95.1993 263.94C95.3418 263.931 95.5825 263.922 95.9927 263.504C96.2177 263.273 96.3762 262.986 96.4515 262.674C96.5269 262.361 96.5164 262.033 96.4211 261.726C95.7531 259.599 94.912 257.53 93.9064 255.539C93.461 254.623 92.9795 253.739 92.5021 252.881C91.6203 251.348 90.8399 249.759 90.1659 248.125C88.9449 244.755 88.1694 241.241 87.8588 237.672C87.7254 236.641 87.591 235.636 87.4305 234.579C87.4394 234.517 87.4394 234.454 87.4305 234.392C87.1717 232.081 87.0112 229.85 86.8597 227.876C86.6151 222.247 85.7541 216.661 84.2918 211.218C84.249 211.011 84.1356 210.826 83.9711 210.693C83.8065 210.56 83.6008 210.488 83.389 210.489C83.2278 210.487 83.0683 210.523 82.9239 210.595C82.7795 210.666 82.6541 210.771 82.5583 210.9C82.4625 211.03 82.3989 211.18 82.3727 211.339C82.3466 211.497 82.3587 211.66 82.408 211.813C82.6849 212.755 82.9256 213.706 83.1483 214.64C83.3489 215.547 83.5405 216.44 83.71 217.396C84.063 218.87 84.2868 220.372 84.3791 221.885C84.3791 221.886 84.3789 221.887 84.3784 221.888C84.378 221.89 84.3773 221.891 84.3765 221.891C84.3756 221.892 84.3746 221.893 84.3735 221.893C84.3724 221.894 84.3712 221.894 84.3701 221.894C83.9071 221.034 83.5337 220.13 83.2556 219.194C83.0771 218.705 82.8725 218.163 82.6538 217.576C82.3599 216.803 82.065 216.029 81.7801 215.276L81.6818 214.987ZM106.71 259.556C106.772 259.401 106.795 259.233 106.776 259.067C106.757 258.901 106.698 258.742 106.602 258.605C106.505 258.47 106.376 258.359 106.228 258.284C106.079 258.208 105.914 258.168 105.747 258.169C105.545 258.169 105.35 258.236 105.19 258.358C105.031 258.48 104.916 258.651 104.864 258.845V258.854C104.613 259.358 104.214 259.773 103.72 260.045C103.226 260.316 102.661 260.431 102.1 260.374C101.641 260.381 101.185 260.305 100.753 260.152L100.735 260.143C100.619 260.097 100.495 260.073 100.37 260.072C100.231 260.086 100.096 260.128 99.9731 260.195C99.8503 260.262 99.7422 260.353 99.655 260.462C99.5678 260.572 99.5034 260.697 99.4655 260.832C99.4276 260.966 99.417 261.107 99.4343 261.245C99.4531 261.428 99.5209 261.604 99.6306 261.752C99.7404 261.9 99.888 262.017 100.058 262.089L100.076 262.098C100.854 262.386 101.685 262.505 102.513 262.445C103.34 262.385 104.145 262.148 104.873 261.751C105.731 261.273 106.385 260.498 106.71 259.573V259.556ZM103.865 280.256C103.919 277.466 103.561 274.684 102.804 271.998C102.755 271.798 102.641 271.619 102.48 271.49C102.318 271.362 102.119 271.29 101.912 271.287C101.748 271.291 101.587 271.331 101.44 271.405C101.294 271.479 101.166 271.585 101.065 271.714C100.971 271.848 100.911 272.003 100.889 272.165C100.867 272.328 100.885 272.493 100.941 272.647C101.639 275.134 101.963 277.71 101.904 280.291C101.913 282.879 101.602 285.459 100.977 287.971C100.928 288.125 100.916 288.288 100.942 288.447C100.968 288.606 101.032 288.757 101.129 288.887C101.228 289.012 101.354 289.113 101.498 289.184C101.641 289.254 101.798 289.293 101.958 289.296C102.174 289.295 102.382 289.22 102.55 289.084C102.717 288.948 102.832 288.759 102.877 288.549C103.553 285.838 103.885 283.053 103.866 280.259L103.865 280.256Z" fill="white" fill-opacity="0.11" stroke="#088ECF"/>
<path d="M64.9996 215.513C64.7057 216.286 64.3977 217.095 64.0968 217.886C63.9182 218.386 63.7397 218.837 63.5953 219.228L63.5862 219.264C63.3825 219.964 63.1044 220.641 62.7567 221.282C62.7543 221.282 62.752 221.281 62.7503 221.279C62.7486 221.278 62.7477 221.275 62.7477 221.273C62.8263 220.082 62.9994 218.899 63.2652 217.735C63.6143 215.737 64.0667 213.758 64.6204 211.806C64.6731 211.653 64.6877 211.49 64.6628 211.33C64.638 211.171 64.5746 211.02 64.478 210.89C64.3802 210.763 64.2548 210.659 64.1111 210.586C63.9675 210.514 63.8093 210.475 63.6484 210.472C63.4371 210.473 63.2323 210.545 63.0681 210.678C62.9038 210.81 62.7901 210.995 62.7456 211.201C61.5963 215.486 60.909 219.881 60.6953 224.312C60.4817 226.952 60.258 229.681 59.7595 232.579C59.4917 234.117 59.287 235.663 59.0814 237.157C58.7413 240.891 57.9419 244.569 56.7011 248.108C56.0404 249.736 55.2658 251.317 54.383 252.837C53.9105 253.69 53.429 254.579 52.9566 255.53C51.9511 257.525 51.1101 259.599 50.4419 261.73C50.353 262.022 50.3398 262.332 50.4037 262.63C50.4676 262.929 50.6063 263.206 50.807 263.437C51.0318 263.7 51.2893 263.932 51.5733 264.13C51.8853 264.33 51.9124 264.352 51.9746 265.561C52.2674 269.42 52.2436 273.297 51.9033 277.152C51.2452 282.649 50.1872 288.092 48.7376 293.436C47.24 299.536 45.6883 305.836 45.4114 312.436C44.5666 318.617 44.304 324.864 44.627 331.094C44.8276 334.303 43.5306 334.463 42.019 334.65C40.4049 334.712 38.8463 335.254 37.5433 336.206C36.5121 337.097 35.1893 337.581 33.8248 337.566C32.9446 337.54 32.068 337.442 31.2038 337.273C30.8738 337.22 30.3391 337.184 29.7232 337.14C27.7612 336.989 24.8011 336.776 24.5253 335.807C24.4183 335.407 24.766 334.918 25.5685 334.34C28.1376 332.516 30.4891 330.404 32.577 328.047C34.7188 325.647 36.1508 322.703 36.7137 319.54C38.0598 311.24 37.142 303.567 36.17 295.44C35.2952 288.831 34.9226 282.166 35.0556 275.502C35.2942 268.829 36.1026 262.189 37.472 255.653C38.4243 251.379 39.0354 247.036 39.2996 242.666C39.538 235.471 39.1952 228.268 38.2745 221.128C37.1872 211.35 38.105 201.475 38.9967 191.919C39.1392 190.346 39.3618 188.746 39.5986 187.11C39.6166 186.994 39.6257 186.888 39.6347 186.799C39.751 185.928 39.7862 185.699 40.6959 185.699C40.9547 185.699 41.2757 185.717 41.7121 185.743C42.4704 185.787 43.326 185.823 44.2358 185.85C46.9714 185.903 49.7015 186.117 52.4119 186.49C57.8777 187.334 62.3003 188.899 65.5372 191.13C66.2883 191.673 67.003 192.264 67.6768 192.899C68.3659 193.549 69.0956 194.154 69.8615 194.712C70.1022 194.881 70.2988 195.005 70.4633 195.112C71.1946 195.583 71.1946 195.583 70.9719 196.463C70.9097 196.739 70.8204 197.076 70.7312 197.539C69.3796 203.493 67.5305 209.324 65.2032 214.97V214.979L64.9996 215.513ZM46.3282 262.148C46.5677 262.064 46.7684 261.895 46.8931 261.675C47.0177 261.454 47.058 261.196 47.0063 260.948C46.9852 260.722 46.8814 260.512 46.7149 260.358C46.5484 260.204 46.3308 260.116 46.1035 260.112C45.9515 260.119 45.8013 260.149 45.6582 260.201C45.2385 260.345 44.7981 260.42 44.3542 260.423C43.7754 260.45 43.202 260.302 42.7099 259.997C42.2178 259.692 41.8303 259.245 41.5987 258.716C41.5336 258.551 41.4192 258.409 41.2709 258.31C41.1225 258.212 40.9474 258.161 40.7692 258.165C40.6033 258.165 40.4397 258.204 40.2924 258.28C40.145 258.356 40.0181 258.466 39.9226 258.601C39.8219 258.765 39.7627 258.951 39.7503 259.142C39.7379 259.334 39.7726 259.526 39.8513 259.701C40.2522 260.566 40.9063 261.289 41.7276 261.776C42.5489 262.264 43.4988 262.491 44.4525 262.43C45.0884 262.43 45.7206 262.335 46.3282 262.148V262.148ZM46.1497 272.655C46.2056 272.501 46.2234 272.336 46.2018 272.173C46.1801 272.011 46.1196 271.856 46.0253 271.722C45.9264 271.591 45.7987 271.484 45.6519 271.41C45.5051 271.336 45.3432 271.297 45.1787 271.295C44.9736 271.298 44.7751 271.368 44.6139 271.494C44.4527 271.621 44.3378 271.797 44.287 271.995C43.5297 274.684 43.1722 277.469 43.2257 280.262C43.2068 283.054 43.5394 285.837 44.2157 288.547C44.2588 288.758 44.3739 288.948 44.5414 289.084C44.7089 289.22 44.9184 289.294 45.1346 289.294C45.2939 289.292 45.4509 289.256 45.5943 289.187C45.7377 289.118 45.864 289.018 45.9641 288.894C46.058 288.763 46.1205 288.612 46.1468 288.454C46.1731 288.295 46.1624 288.132 46.1156 287.978C45.491 285.466 45.1797 282.886 45.1887 280.298C45.1282 277.715 45.452 275.137 46.1497 272.648V272.655Z" fill="white" fill-opacity="0.11" stroke="#088ECF"/>
<path d="M102.002 98.169C101.908 98.0265 101.779 97.9097 101.628 97.829C101.478 97.7484 101.309 97.7065 101.138 97.707C100.945 97.7088 100.759 97.7706 100.603 97.8838C100.448 97.997 100.333 98.1559 100.273 98.338C99.5261 100.164 98.0973 101.63 96.2877 102.427C94.3435 103.273 92.2385 103.688 90.1177 103.645C85.5035 103.645 80.5413 102.036 78.0537 99.725C77.8845 99.5576 77.6588 99.4592 77.4207 99.449C77.2141 99.4614 77.0155 99.5335 76.8493 99.6566C76.683 99.7796 76.5564 99.9483 76.4848 100.142C76.4062 100.338 76.3898 100.552 76.4377 100.758C76.4856 100.963 76.5955 101.148 76.7527 101.289C78.4392 102.752 80.4131 103.848 82.5485 104.507C84.9449 105.31 87.456 105.722 89.9843 105.725C92.5058 105.78 95.0066 105.26 97.2958 104.205C99.4763 103.184 101.187 101.376 102.083 99.147C102.155 98.9906 102.184 98.8186 102.17 98.6475C102.156 98.4763 102.098 98.3116 102.002 98.169ZM87.2459 129.734C86.005 130.202 84.6935 130.458 83.367 130.49C83.077 130.498 82.7871 130.474 82.5023 130.419C82.4294 130.401 82.3547 130.392 82.2796 130.392C82.142 130.406 82.0085 130.448 81.8869 130.514C81.7654 130.58 81.658 130.669 81.5711 130.776C81.4841 130.884 81.4193 131.007 81.3803 131.14C81.3413 131.272 81.3289 131.411 81.3438 131.548C81.3689 131.756 81.4549 131.953 81.5912 132.113C81.7274 132.273 81.9079 132.389 82.1101 132.448C82.4913 132.528 82.8803 132.564 83.2697 132.555C85.0872 132.52 86.8778 132.111 88.5298 131.355C89.9121 130.715 91.5882 129.577 91.7397 127.826C91.7571 127.701 91.7471 127.573 91.7102 127.453C91.6733 127.332 91.6104 127.22 91.526 127.126C91.429 127.026 91.3125 126.947 91.1836 126.893C91.0548 126.84 90.9163 126.813 90.7767 126.815C90.55 126.806 90.3277 126.878 90.1496 127.018C89.9714 127.159 89.8492 127.357 89.8047 127.579C89.6262 128.401 88.7164 129.165 87.2459 129.734ZM89.7696 117.787C89.3774 119.343 85.2558 120.427 83.1714 120.427C82.95 120.436 82.7284 120.418 82.5114 120.374C82.4354 120.356 82.3577 120.347 82.2796 120.347C82.0009 120.378 81.746 120.518 81.5706 120.736C81.3952 120.954 81.3136 121.233 81.3438 121.511C81.3689 121.719 81.4549 121.916 81.5912 122.076C81.7274 122.236 81.9079 122.352 82.1101 122.411C82.4953 122.481 82.8861 122.517 83.2777 122.518C85.0946 122.478 86.8844 122.07 88.5378 121.318C89.9111 120.687 91.5782 119.576 91.7387 117.896C91.7512 117.746 91.7323 117.595 91.6833 117.453C91.6342 117.31 91.5561 117.18 91.4538 117.069C91.366 116.968 91.2584 116.886 91.1377 116.828C91.0169 116.77 90.8856 116.737 90.7516 116.731C90.2862 116.73 89.9291 117.121 89.7686 117.792L89.7696 117.787ZM64.6926 130.48C63.3484 130.445 62.0195 130.187 60.7606 129.716C59.2359 129.147 58.3171 128.4 58.1656 127.6C58.1293 127.376 58.0127 127.172 57.8373 127.026C57.662 126.881 57.4397 126.804 57.2117 126.809C57.0716 126.81 56.9332 126.838 56.8045 126.893C56.6758 126.948 56.5594 127.028 56.4624 127.129C56.3689 127.24 56.2993 127.369 56.2579 127.509C56.2164 127.648 56.2041 127.794 56.2216 127.938C56.3821 129.618 58.0492 130.72 59.4225 131.36C61.0765 132.109 62.8663 132.514 64.6826 132.551C65.0746 132.56 65.4664 132.524 65.8502 132.444C66.0856 132.378 66.2907 132.233 66.4303 132.033C66.5699 131.833 66.6353 131.591 66.6153 131.348C66.5952 131.105 66.491 130.877 66.3204 130.702C66.1499 130.527 65.9237 130.417 65.6807 130.391C65.6056 130.391 65.5309 130.4 65.458 130.418C65.2067 130.465 64.9513 130.486 64.6956 130.481L64.6926 130.48ZM44.8006 99.155C45.7502 101.409 47.5217 103.219 49.7578 104.222C52.1281 105.281 54.7042 105.803 57.3009 105.751C62.544 105.751 68.054 103.951 71.0321 101.298C71.1957 101.162 71.3114 100.977 71.3626 100.771C71.4139 100.565 71.3979 100.348 71.317 100.151C71.249 99.9562 71.1248 99.7857 70.9598 99.6611C70.7949 99.5366 70.5967 99.4634 70.3901 99.451C70.1557 99.4579 69.9327 99.5533 69.7662 99.718C67.1582 102.038 61.9823 103.665 57.1766 103.665C54.974 103.71 52.7866 103.292 50.7569 102.438C48.8895 101.659 47.3996 100.186 46.6021 98.331C46.5434 98.1507 46.429 97.9935 46.2754 97.8818C46.1217 97.7701 45.9366 97.7096 45.7465 97.709C45.5734 97.7109 45.4035 97.7548 45.2513 97.8369C45.099 97.9189 44.9691 98.0367 44.8728 98.18C44.7772 98.3226 44.7205 98.4877 44.7083 98.6588C44.6962 98.83 44.729 99.0014 44.8036 99.156L44.8006 99.155ZM14.2979 181.698C14.5491 182.505 14.5018 183.376 14.1645 184.151C14.1285 184.195 14.0838 184.231 14.0333 184.257C13.9827 184.283 13.9273 184.298 13.8706 184.302C13.4423 184.302 12.8896 183.555 12.373 182.266C11.5886 180.115 10.3227 178.719 9.12703 178.719C8.84357 178.73 8.56717 178.81 8.32225 178.953C8.07733 179.096 7.87141 179.296 7.72271 179.537C7.2477 180.307 6.96335 181.178 6.89316 182.079C6.61099 184.308 6.56023 186.56 6.7417 188.799C6.90219 191.137 7.25026 193.699 7.72271 197.066C7.97247 198.866 7.77588 200.293 7.18808 200.966C7.09567 201.081 6.9793 201.175 6.84699 201.241C6.71467 201.307 6.56957 201.343 6.42171 201.348C5.71956 201.348 4.8529 200.53 4.4958 198.717C3.51647 193.207 3.12209 187.609 3.31919 182.017C3.45312 176.19 4.15865 170.391 5.42566 164.701C6.32843 160.87 7.0667 157.137 7.77989 153.528C9.36676 145.581 10.8563 138.07 13.8425 129.883C15.3248 126.563 16.9919 123.329 18.8358 120.194C21.1991 116.363 21.6886 112.567 22.1791 108.887C22.4178 106.383 22.929 103.912 23.7038 101.518L23.7128 101.491C24.1287 99.6298 24.7725 97.8266 25.6297 96.122C25.7009 95.989 25.7631 95.873 25.8082 95.766C26.1734 95.037 26.1734 95.037 26.5395 94.948C26.7337 94.9022 26.9244 94.8427 27.1102 94.77C27.4524 94.6396 27.744 94.4037 27.9424 94.0967C28.1409 93.7897 28.2359 93.4275 28.2136 93.063C28.2111 91.0378 28.4567 89.0198 28.9449 87.054L29.0452 86.565C29.6155 83.3263 30.6422 80.1843 32.0946 77.232C32.8258 75.832 47.5199 66.876 51.6396 64.494C57.31 61.116 60.6272 57.881 61.5279 54.885C61.8079 53.9099 62.0091 52.9141 62.1298 51.907C62.1659 51.64 62.1829 51.407 62.201 51.231C62.2542 50.769 61.8439 43.631 61.9332 43.631C61.9954 43.631 60.8007 40.315 59.8558 39.764C59.4861 39.5556 59.1315 39.3217 58.7945 39.064C57.974 38.442 57.5999 36.62 57.2077 34.691V34.664C56.8425 32.851 57.1455 32.424 57.5286 31.882C57.8796 31.4327 58.1152 30.9047 58.2148 30.344C58.35 29.5633 58.3378 28.7642 58.1786 27.988C57.323 21.748 58.7223 16.006 62.0124 12.255C63.3586 10.8319 64.9823 9.69797 66.7839 8.92298C68.5855 8.14798 70.5269 7.74822 72.4891 7.74822C74.4512 7.74822 76.3927 8.14798 78.1943 8.92298C79.9959 9.69797 81.6196 10.8319 82.9658 12.255C86.2559 16.006 87.6471 21.74 86.7995 27.988C86.5969 28.7013 86.5681 29.4525 86.7153 30.1792C86.8626 30.9059 87.1817 31.587 87.6461 32.166C87.8869 32.513 88.1366 32.859 87.8467 34.266V34.275C87.7936 34.515 87.7464 34.782 87.6953 35.057C87.3943 36.773 87.0172 38.906 85.3882 39.475C84.015 39.946 83.4984 40.124 83.0079 43.635C82.5464 46.9786 82.6673 50.3764 83.365 53.679C84.0398 56.5085 85.7182 58.9993 88.0905 60.692C90.4532 62.3444 92.9958 63.7251 95.6698 64.808C96.8113 65.324 97.8896 65.808 98.9418 66.337C100.136 66.937 101.402 67.501 102.633 68.044C107.305 70.115 112.129 72.244 114.732 77.111C115.92 79.4477 116.809 81.9233 117.38 84.48C118.162 87.275 118.587 90.157 118.646 93.058C118.626 93.4284 118.726 93.7955 118.932 94.1047C119.137 94.4138 119.438 94.6486 119.788 94.774C120.031 94.8527 120.283 94.9063 120.537 94.934C120.778 94.952 120.778 94.952 121.039 95.467C121.139 95.654 121.27 95.911 121.467 96.267C123.74 100.587 125.07 105.337 125.372 110.205C125.657 113.565 125.925 116.729 128.047 120.187C129.895 123.32 131.562 126.554 133.04 129.876C135.699 137.095 137.658 144.551 138.889 152.143C139.371 154.765 139.893 157.299 140.405 159.752C141.921 167.068 143.347 173.983 143.562 182.01C143.764 187.6 143.369 193.196 142.385 198.703C142.273 199.411 141.998 200.083 141.583 200.667C141.461 200.859 141.296 201.019 141.101 201.137C140.906 201.254 140.686 201.325 140.459 201.343C140.31 201.34 140.163 201.305 140.029 201.239C139.894 201.173 139.777 201.078 139.684 200.961C139.095 200.285 138.899 198.861 139.149 197.061C139.185 196.803 139.22 196.554 139.257 196.297L139.275 196.208C139.747 193.227 140.059 190.222 140.211 187.208C140.272 185.492 140.194 183.774 139.979 182.07C139.694 179.706 138.954 178.301 138 178.301C137.073 178.301 136.03 179.601 135.075 181.945C134.655 182.834 133.559 184.158 132.908 184.158C132.854 184.159 132.8 184.147 132.75 184.124C132.701 184.101 132.658 184.067 132.623 184.025C132.401 183.758 132.392 183.101 132.596 182.069C132.939 180.225 133.486 178.424 134.228 176.7C134.602 175.82 134.959 174.86 135.352 173.669C136.057 171.796 136.413 169.811 136.404 167.811C136.371 167.372 136.178 166.961 135.86 166.655C135.468 166.291 135.28 166.264 135.147 166.246C134.946 166.228 134.879 166.219 134.461 165.099C134.087 164.13 133.667 163.108 133.213 162.041C133.097 161.765 131.073 157.17 130.271 155.525C129.184 153.325 128.024 151.107 126.91 148.974C124.546 144.636 122.406 140.179 120.499 135.623C119.482 133.481 118.895 131.162 118.77 128.796C118.768 127.833 118.922 126.875 119.224 125.96C119.369 125.535 119.346 125.071 119.16 124.662C118.973 124.253 118.638 123.931 118.221 123.76C118.022 123.681 117.811 123.636 117.597 123.627C117.434 123.622 117.272 123.665 117.134 123.751C117.098 123.769 117.071 123.787 117.053 123.795C117.006 123.837 116.947 123.865 116.884 123.875C116.723 123.875 116.554 123.528 115.881 121.937C115.587 121.244 115.279 120.537 114.978 119.857L114.942 119.786C112.828 115.113 110.967 110.33 109.369 105.457C108.995 104.221 108.667 103.013 108.406 101.839C107.783 99.2515 107.469 96.5999 107.47 93.939C107.483 93.7082 107.449 93.4772 107.369 93.2601C107.29 93.0431 107.166 92.8446 107.007 92.677C106.693 92.3683 106.27 92.1958 105.83 92.197C105.618 92.1922 105.408 92.2292 105.211 92.3058C105.014 92.3824 104.834 92.497 104.681 92.6432C104.529 92.7894 104.407 92.9642 104.322 93.1576C104.238 93.351 104.192 93.5591 104.189 93.77C104.187 93.8036 104.19 93.8372 104.198 93.87C104.2 97.3542 104.673 100.822 105.602 104.181C105.772 104.848 105.914 105.372 106.031 105.781C106.503 107.461 106.503 107.461 105.968 108.781C105.79 109.225 105.54 109.839 105.228 110.719C103.93 114.448 102.972 118.286 102.366 122.186C101.591 126.954 101.483 131.806 102.045 136.604V136.613C102.519 140.079 102.48 143.595 101.929 147.049C101.787 148.222 101.628 149.549 101.492 151.031C101.456 151.404 101.447 151.778 101.447 152.151C101.447 152.898 101.448 152.898 100.404 153.2C100.235 153.244 100.047 153.3 99.8335 153.369C95.4442 154.642 90.9599 155.564 86.4234 156.125C81.4701 156.754 76.4818 157.069 71.4885 157.067C67.2278 157.073 62.9704 156.83 58.7384 156.338C54.8657 155.905 51.0343 155.162 47.2812 154.116L47.0134 154.036C45.3643 153.565 45.3643 153.565 45.4175 152.667C45.456 152.119 45.45 151.569 45.3994 151.022C45.266 149.546 45.1145 148.275 44.9621 147.049V147.04C44.4153 143.588 44.3761 140.076 44.8457 136.613V136.592C45.4092 131.843 45.3161 127.04 44.5688 122.316C43.942 118.104 42.9348 113.957 41.5596 109.925C41.2918 109.134 41.0691 108.609 40.9086 108.218C40.4632 107.125 40.4632 107.125 40.8906 105.596C40.9798 105.296 41.0781 104.92 41.2025 104.458C41.363 103.827 41.5145 103.214 41.6479 102.627C42.3317 99.7552 42.6758 96.8136 42.673 93.862C42.6826 93.6518 42.6505 93.4419 42.5785 93.2441C42.5066 93.0463 42.3963 92.8646 42.2538 92.7094C42.1113 92.5542 41.9396 92.4285 41.7483 92.3395C41.5571 92.2506 41.3502 92.2001 41.1393 92.191C41.1061 92.1864 41.0723 92.1864 41.039 92.191C40.8197 92.1859 40.6017 92.2249 40.398 92.3058C40.1942 92.3868 40.009 92.5079 39.8534 92.662C39.6963 92.831 39.575 93.0299 39.4969 93.2467C39.4188 93.4636 39.3855 93.694 39.399 93.924C39.3956 96.5883 39.0815 99.2431 38.4631 101.835C37.3968 106.022 36.0078 110.12 34.3084 114.093L34.2722 114.182C33.55 116.013 32.7837 117.835 31.9361 119.773L31.9 119.835C31.4716 120.835 31.0172 121.862 30.5959 122.857C30.5067 123.07 30.4355 123.239 30.3953 123.373C30.2348 123.755 30.1947 123.873 30.1185 123.873C30.0743 123.868 30.0318 123.853 29.9941 123.829C29.7869 123.713 29.5535 123.652 29.316 123.651H29.2358C28.9801 123.652 28.7284 123.714 28.5016 123.831C28.2748 123.949 28.0794 124.119 27.9318 124.327C27.7654 124.56 27.6562 124.828 27.6128 125.111C27.5694 125.393 27.5931 125.682 27.682 125.954C28.2531 127.775 28.2962 129.719 27.8064 131.563C26.1091 136.577 23.9883 141.439 21.4669 146.096C20.8651 147.26 20.2361 148.46 19.6393 149.616V149.625C18.1146 152.532 16.5368 155.545 15.1545 158.576L14.9228 159.092C13.9505 161.111 13.0873 163.181 12.3369 165.292C12.0069 166.225 11.9447 166.234 11.7481 166.261C11.4899 166.297 11.2528 166.423 11.079 166.617C10.1522 167.426 10.3929 169.568 10.758 171.23C11.2389 173.103 11.8709 174.934 12.6478 176.706C13.3713 178.309 13.9253 179.982 14.3009 181.699L14.2979 181.698ZM95.427 98.798C95.4359 98.4517 95.3067 98.1159 95.0677 97.8644C94.8287 97.6128 94.4995 97.4659 94.1521 97.456C93.8867 97.441 93.6227 97.5048 93.3936 97.6393C93.1645 97.7739 92.9807 97.9732 92.8652 98.2119C92.7497 98.4507 92.7079 98.7182 92.745 98.9807C92.7821 99.2432 92.8964 99.4888 93.0735 99.6865C93.2506 99.8842 93.4825 100.025 93.74 100.091C93.9974 100.158 94.2688 100.146 94.5197 100.059C94.7707 99.9712 94.99 99.8115 95.1499 99.5997C95.3098 99.3879 95.4031 99.1336 95.418 98.869C95.4259 98.8472 95.4303 98.8242 95.431 98.801L95.427 98.798ZM85.0612 64.292C85.1912 64.1431 85.274 63.9592 85.2994 63.7635C85.3247 63.5677 85.2914 63.3689 85.2036 63.192C85.1193 63.0166 84.9898 62.8666 84.8284 62.7574C84.667 62.6481 84.4794 62.5834 84.2848 62.57C84.1432 62.5749 84.0047 62.6118 83.8795 62.678C83.7544 62.7442 83.646 62.8379 83.5626 62.952C82.5025 64.0107 81.1745 64.7634 79.7198 65.13C78.7062 65.4297 77.7399 65.8697 76.849 66.437C76.4131 66.7348 76.0461 67.122 75.7724 67.5726C75.4988 68.0233 75.3248 68.5269 75.2621 69.05C75.2349 69.1971 75.2407 69.3484 75.2792 69.493C75.3177 69.6375 75.3879 69.7717 75.4848 69.886C75.582 69.9952 75.7014 70.0827 75.8351 70.1425C75.9688 70.2023 76.1136 70.2332 76.2602 70.233C76.5013 70.2337 76.7337 70.1433 76.9107 69.98C77.0877 69.8167 77.1961 69.5927 77.2141 69.353C77.3655 68.253 78.8631 67.653 80.5935 66.962C82.1984 66.311 84.027 65.583 85.0612 64.292ZM74.9943 134.808L74.9762 115.492C74.9931 115.238 74.9091 114.987 74.7422 114.794C74.5754 114.601 74.3391 114.482 74.0845 114.461H73.9952V114.47C73.8689 114.465 73.7429 114.486 73.6248 114.531C73.5066 114.575 73.3986 114.643 73.3071 114.73C73.2157 114.817 73.1426 114.921 73.0923 115.037C73.042 115.153 73.0154 115.277 73.0142 115.403V115.492L73.0322 134.808C73.0322 135.067 73.1356 135.316 73.3196 135.5C73.5036 135.683 73.7531 135.786 74.0133 135.786C74.2734 135.786 74.523 135.683 74.7069 135.5C74.8909 135.316 74.9943 135.067 74.9943 134.808ZM74.4235 94.657C74.4325 94.6219 74.4325 94.5851 74.4235 94.55V83.832C74.4401 83.5789 74.3557 83.3294 74.1887 83.138C74.0216 82.9466 73.7856 82.8287 73.5318 82.81H73.4465C73.3199 82.8059 73.1937 82.8268 73.0753 82.8716C72.9568 82.9163 72.8485 82.984 72.7564 83.0708C72.6644 83.1575 72.5905 83.2616 72.539 83.377C72.4875 83.4923 72.4595 83.6168 72.4565 83.743V94.552C72.4449 94.6835 72.4599 94.8159 72.5007 94.9415C72.5415 95.067 72.6073 95.1831 72.694 95.2828C72.7807 95.3825 72.8867 95.4638 73.0056 95.5219C73.1245 95.5799 73.2538 95.6135 73.386 95.6207C73.5182 95.6279 73.6505 95.6085 73.775 95.5637C73.8995 95.5188 74.0137 95.4495 74.1108 95.3597C74.2078 95.27 74.2858 95.1617 74.3401 95.0414C74.3943 94.921 74.4237 94.7909 74.4265 94.659L74.4235 94.657ZM75.6804 143.751C75.6804 143.111 74.9491 142.578 74.0393 142.578C73.1295 142.578 72.4073 143.111 72.4073 143.751C72.4073 144.391 73.1386 144.933 74.0393 144.933C74.9401 144.933 75.6814 144.401 75.6814 143.752L75.6804 143.751ZM71.1063 69.884C71.2026 69.7694 71.2725 69.6352 71.311 69.4907C71.3494 69.3462 71.3556 69.1951 71.329 69.048C71.2683 68.5254 71.0961 68.0219 70.8239 67.5712C70.5517 67.1205 70.186 66.7331 69.7512 66.435C68.8602 65.8677 67.8939 65.4277 66.8804 65.128C65.4241 64.7652 64.0951 64.012 63.0376 62.95C62.9541 62.836 62.8457 62.7423 62.7206 62.6761C62.5954 62.6099 62.4569 62.573 62.3153 62.568C62.1185 62.5771 61.928 62.6399 61.7645 62.7496C61.6011 62.8593 61.471 63.0116 61.3885 63.19C61.3055 63.368 61.2748 63.5659 61.3 63.7606C61.3252 63.9553 61.4053 64.1389 61.5309 64.29C62.5651 65.579 64.3927 66.308 65.9977 66.957C67.727 67.65 69.2256 68.246 69.377 69.348C69.3939 69.5873 69.5023 69.8111 69.6798 69.9731C69.8573 70.1352 70.0903 70.2232 70.3309 70.219C70.477 70.2235 70.6223 70.1959 70.7565 70.1382C70.8906 70.0805 71.0104 69.9941 71.1073 69.885L71.1063 69.884ZM65.8542 122.409C65.9881 122.372 66.1132 122.309 66.2225 122.223C66.3318 122.138 66.423 122.031 66.491 121.911C66.5589 121.79 66.6023 121.657 66.6185 121.519C66.6347 121.382 66.6235 121.242 66.5855 121.109C66.5267 120.907 66.4098 120.727 66.2493 120.592C66.0888 120.456 65.8917 120.37 65.6827 120.345C65.6077 120.345 65.5329 120.354 65.46 120.372C65.1749 120.425 64.8854 120.452 64.5954 120.452C63.2684 120.417 61.9569 120.159 60.7164 119.688C59.2539 119.128 58.3451 118.364 58.1576 117.546C58.119 117.327 58.004 117.128 57.8328 116.985C57.6615 116.842 57.4451 116.763 57.2217 116.764C57.0783 116.763 56.9364 116.792 56.8054 116.85C56.6744 116.908 56.5575 116.994 56.4624 117.101C56.3674 117.208 56.2964 117.334 56.2544 117.471C56.2123 117.607 56.2001 117.751 56.2186 117.893C56.343 119.2 57.4755 120.417 59.4104 121.306C61.0633 122.061 62.853 122.472 64.6706 122.515C65.068 122.52 65.4649 122.485 65.8552 122.41L65.8542 122.409ZM54.9497 98.8C54.9589 98.4551 54.8311 98.1205 54.594 97.8691C54.3569 97.6178 54.0297 97.47 53.6838 97.458H53.6748C53.4094 97.443 53.1454 97.5068 52.9163 97.6414C52.6873 97.7759 52.5034 97.9752 52.3879 98.2139C52.2725 98.4527 52.2306 98.7202 52.2677 98.9827C52.3048 99.2452 52.4191 99.4908 52.5962 99.6885C52.7733 99.8862 53.0052 100.027 53.2627 100.093C53.5201 100.16 53.7915 100.148 54.0424 100.061C54.2934 99.9732 54.5127 99.8135 54.6726 99.6017C54.8325 99.3899 54.9258 99.1356 54.9407 98.871C54.9478 98.8484 54.9512 98.8247 54.9507 98.801L54.9497 98.8Z" fill="white" fill-opacity="0.11" stroke="#088ECF"/>
<path d="M11.4027 186.294C11.9514 186.985 12.6884 187.503 13.5253 187.787C13.8347 187.881 14.1557 187.932 14.4792 187.938C15.1716 187.904 15.8341 187.647 16.3666 187.204C16.899 186.761 17.2724 186.158 17.4303 185.485C17.8495 184.196 18.1705 181.156 15.6377 175.285C14.4424 172.855 14.2505 170.055 15.1031 167.485C15.853 165.159 16.7771 162.892 17.8676 160.703L17.8766 160.685L18.2066 159.974C19.7845 156.614 21.5238 153.263 23.2 150.018L23.218 149.982L24.3946 147.715C27.4169 141.848 30.2346 136.106 31.5636 130.275C32.4108 127.168 33.5357 124.142 34.925 121.235C35.7635 119.335 36.574 117.377 37.4216 115.271C37.6533 114.684 37.8499 114.171 38.0014 113.751C38.3846 112.738 38.5902 112.178 38.7768 112.178C38.9904 112.178 39.178 112.889 39.5793 114.454L39.5883 114.49C39.6414 114.73 39.7127 114.979 39.7889 115.246C40.4365 117.757 40.9514 120.299 41.3316 122.864C42.0254 127.258 42.1185 131.725 41.6085 136.144C41.0809 139.912 41.1201 143.738 41.7249 147.495C41.8583 148.615 42.0097 149.877 42.1441 151.362C42.2499 152.677 42.0437 153.999 41.5423 155.22C40.7947 157.578 40.3541 160.021 40.2313 162.491C40.1781 163.091 40.1239 163.7 40.0527 164.349C39.6073 168.705 38.7487 173.273 37.9222 177.691V177.718C37.0575 182.305 36.1748 187.051 35.7465 191.618C34.8437 201.369 33.9098 211.44 35.0333 221.547C35.9199 228.476 36.2553 235.465 36.0364 242.447C35.7871 246.662 35.1998 250.85 34.28 254.971C32.8717 261.694 32.0425 268.525 31.8014 275.389C31.6596 282.244 32.0412 289.099 32.9429 295.896C33.8788 303.745 34.7615 311.158 33.4956 318.981C32.9504 321.76 31.6344 324.332 29.6969 326.403C27.8776 328.306 25.8703 330.022 23.7055 331.523C22.4248 332.358 21.4491 333.583 20.924 335.016C20.7661 335.466 20.7111 335.945 20.7632 336.419C20.8153 336.893 20.973 337.349 21.2249 337.754C22.5801 339.772 26.5653 340.225 29.1964 340.527C29.7982 340.598 30.3108 340.651 30.7391 340.727C31.8315 340.933 32.9382 341.054 34.0493 341.091C36.0782 341.082 38.0341 340.335 39.5502 338.991C40.4148 338.45 41.4097 338.153 42.43 338.129C45.5957 337.729 48.3241 337.391 47.9229 330.911C47.6088 324.877 47.8627 318.827 48.6812 312.84L48.6902 312.76V312.68C48.9581 306.209 50.4958 299.915 52.0074 293.826C53.4621 288.474 54.5202 283.022 55.1731 277.515C55.5809 272.597 55.5554 267.653 55.0969 262.739C55.0956 260.616 55.5263 258.514 56.3628 256.561C56.8352 255.423 57.3879 254.348 57.9236 253.308C58.5919 252.048 59.1945 250.754 59.7291 249.432C61.048 245.71 61.9044 241.841 62.279 237.912C62.4796 236.383 62.6982 234.812 62.9811 233.212C63.9842 227.47 66.0395 222.048 68.2332 216.305L68.2423 216.287L68.2513 216.26C69.7669 212.269 71.3368 208.144 72.5846 203.789C72.7983 203.033 72.9497 202.42 73.0661 201.967C73.2537 201.247 73.3429 200.883 73.4312 200.883C73.5195 200.883 73.6188 201.239 73.7963 201.959C73.9127 202.412 74.0732 203.035 74.2979 203.799C75.5457 208.155 77.1155 212.288 78.6312 216.279L78.6402 216.297C80.8249 222.039 82.8933 227.461 83.9003 233.213C84.2013 234.946 84.4179 236.564 84.6135 238.129C84.9631 241.991 85.8141 245.792 87.1453 249.436C87.6983 250.796 88.3136 252.12 88.991 253.409C90.4083 256.2 91.7464 258.831 91.7815 262.742C91.3298 267.651 91.3056 272.59 91.7093 277.503C92.2269 282.863 93.4748 289.059 95.8912 298.232C97.5673 304.597 98.6727 314.694 99.0117 321.877C99.1664 324.883 99.1517 327.895 98.9676 330.899C98.5573 337.379 101.295 337.717 104.46 338.117C105.481 338.145 106.476 338.446 107.34 338.988C108.858 340.329 110.814 341.072 112.841 341.077C113.949 341.047 115.052 340.928 116.14 340.721H116.149C117.103 340.57 118.905 340.33 119.93 340.277C120.256 340.312 120.583 340.33 120.911 340.33C121.748 340.399 122.59 340.277 123.373 339.972C124.155 339.667 124.857 339.187 125.425 338.57C125.787 338.061 126.024 337.473 126.117 336.856C126.21 336.238 126.156 335.607 125.959 335.014C125.441 333.58 124.468 332.354 123.187 331.521C120.912 329.92 118.819 328.075 116.946 326.021C115.116 324.057 113.882 321.616 113.388 318.981C112.122 311.15 113.005 303.745 113.95 295.896C114.842 289.098 115.224 282.243 115.091 275.389C114.843 268.528 114.011 261.7 112.603 254.98C111.684 250.856 111.097 246.665 110.847 242.447C110.624 235.462 110.959 228.471 111.85 221.54C112.369 216.508 112.5 211.445 112.242 206.393C112.011 199.691 111.422 193.006 110.477 186.366C110.04 183.477 109.487 180.544 108.961 177.717L108.872 177.246C107.856 172.307 107.12 167.316 106.665 162.295C106.595 160.637 106.371 158.988 105.996 157.371C105.836 156.713 105.639 156.118 105.443 155.54C104.907 154.215 104.67 152.789 104.748 151.362C104.882 149.904 105.025 148.695 105.168 147.513V147.486C105.768 143.729 105.807 139.904 105.284 136.135C104.767 131.675 104.872 127.166 105.596 122.735C105.987 120.166 106.516 117.62 107.183 115.108C107.272 114.77 107.352 114.459 107.424 114.184C107.781 112.815 107.941 112.193 108.137 112.193C108.306 112.193 108.502 112.717 108.859 113.651C109.001 114.033 109.171 114.469 109.377 114.993C110.179 116.984 111.035 119.1 111.963 121.233C113.352 124.141 114.48 127.166 115.333 130.273C115.852 132.48 116.544 134.644 117.401 136.744C119.344 141.411 121.528 145.974 123.945 150.415C125.069 152.566 126.228 154.78 127.307 156.993C128.27 158.94 129.714 162.211 130.232 163.429C131.747 167.056 132.739 169.447 131.988 172.86C131.662 174.189 131.239 175.492 130.722 176.76C129.635 179.631 128.515 182.591 129.447 185.471C129.597 186.256 130.053 186.949 130.715 187.399C131.377 187.849 132.191 188.019 132.978 187.871C133.105 187.848 133.231 187.815 133.352 187.771C134.157 187.485 134.873 186.995 135.43 186.349C135.873 185.833 136.253 185.266 136.562 184.66C136.741 184.34 136.856 184.127 136.927 184.127C136.936 184.127 136.945 184.136 136.954 184.145C137.067 185.114 137.064 186.093 136.945 187.061C136.803 190.128 136.383 193.194 135.964 196.161L135.911 196.543C135.51 199.443 136 201.85 137.302 203.343C137.681 203.794 138.155 204.157 138.689 204.408C139.223 204.658 139.806 204.789 140.396 204.792C141.588 204.773 142.725 204.288 143.562 203.441C144.64 202.333 145.35 200.921 145.595 199.397C146.452 194.609 146.885 189.754 146.888 184.89H147.128V343.99H0.00775336V185.112C0.00670906 189.902 0.436408 194.683 1.29169 199.397C1.53403 200.925 2.2442 202.34 3.32493 203.45C4.15923 204.295 5.29258 204.78 6.48163 204.801C7.07154 204.796 7.6534 204.664 8.18733 204.414C8.72127 204.164 9.19467 203.801 9.57512 203.352C10.8791 201.859 11.3807 199.441 10.9794 196.552C10.516 193.252 10.177 190.752 10.0255 188.552C9.98138 187.939 9.95429 187.316 9.93623 186.659C9.90915 185.503 9.90916 184.979 10.0255 184.859C10.0333 184.85 10.0429 184.843 10.0536 184.839C10.0644 184.834 10.076 184.832 10.0877 184.832C10.2211 184.832 10.4619 185.132 10.8541 185.623C11.0105 185.814 11.1891 186.045 11.4027 186.294Z" fill="#53BFEF"/>
<path d="M72.5648 7.002H156" stroke="#088ECF" stroke-linecap="round" stroke-dasharray="1 2"/>
</svg>
